<?xml version="1.0" encoding="UTF-8" standalone="no"?>
<!-- Created with Inkscape (http://www.inkscape.org/) -->

<svg
        xmlns:inkscape="http://www.inkscape.org/namespaces/inkscape"
        xmlns:sodipodi="http://sodipodi.sourceforge.net/DTD/sodipodi-0.dtd"
        width="350"
        height="700"
        viewBox="0 0 92.604164 185.20834"
        version="1.1"
        id="svg4829"
        sodipodi:docname="PRO.svg"
        inkscape:export-filename="..\gui\images\PRO.png"
        inkscape:export-xdpi="96"
        inkscape:export-ydpi="96"
        inkscape:version="1.2.2 (732a01da63, 2022-12-09)"
        xmlns="http://www.w3.org/2000/svg">
  <sodipodi:namedview
          id="namedview4831"
          pagecolor="#ffffff"
          bordercolor="#999999"
          borderopacity="1"
          inkscape:showpageshadow="0"
          inkscape:pageopacity="0"
          inkscape:pagecheckerboard="0"
          inkscape:deskcolor="#d1d1d1"
          inkscape:document-units="px"
          showgrid="false"
          inkscape:zoom="1.8761364"
          inkscape:cx="-191.6172"
          inkscape:cy="236.39006"
          inkscape:window-width="3840"
          inkscape:window-height="2137"
          inkscape:window-x="-8"
          inkscape:window-y="-8"
          inkscape:window-maximized="1"
          inkscape:current-layer="layer1"
          showguides="true">
    <sodipodi:guide
            position="50.415084,173.56667"
            orientation="0,1"
            id="guide559"
            inkscape:locked="false"
            inkscape:label=""
            inkscape:color="rgb(0,134,229)"/>
  </sodipodi:namedview>
  <defs
          id="defs4826"/>
  <g
          inkscape:label="Calque 1"
          inkscape:groupmode="layer"
          id="layer1">
    <path
            style="font-variation-settings:normal;display:inline;fill:none;fill-opacity:1;stroke:#000000;stroke-width:0.529167;stroke-linecap:round;stroke-linejoin:miter;stroke-miterlimit:4;stroke-dasharray:none;stroke-dashoffset:0;stroke-opacity:1;stop-color:#000000"
            d="m 45.325624,13.52296 c 21.000589,0 31.765309,11.20264 39.464495,24.6712 10.592878,18.53063 2.161184,60.84997 0.680229,63.72116 -4.030403,8.34489 -7.385521,27.04278 -9.067393,40.90815 -1.702399,14.03459 -11.038165,28.86191 -31.077331,28.86191 -19.158083,0 -29.267123,-14.77714 -31.037693,-28.77327 -1.75067,-13.83879 -2.98095,-27.97619 -7.76128,-41.12122 -0.75397,-1.8316 -9.535581,-42.02428 1.70686,-63.65863 6.8419,-13.16619 18.33864,-24.6093 37.092113,-24.6093 z"
            id="path20699"
            sodipodi:nodetypes="sscssscss"/>
    <text
            xml:space="preserve"
            style="font-style:normal;font-weight:normal;font-size:3.8597px;line-height:1.25;font-family:sans-serif;letter-spacing:-0.232502px;fill:#000000;fill-opacity:1;stroke:none;stroke-width:0.0964923"
            x="37.068035"
            y="115.87392"
            id="text20743"><tspan
         sodipodi:role="line"
         id="tspan20741"
         style="fill:#000000;fill-opacity:1;stroke-width:0.0964923"
         x="37.068035"
         y="115.87392">ShuttlePRO</tspan></text>
    <path
            id="path20701"
            style="fill:none;stroke:#000000;stroke-width:0.529167;stroke-linecap:round;stroke-miterlimit:4;stroke-dasharray:none;stroke-opacity:1;stop-color:#000000"
            d="m 74.479888,89.09693 0.413466,0.42572 c 1.179523,1.21447 0.892108,2.9235 -0.06308,4.32129 -3.319527,4.8577 -7.33077,8.68313 -11.948028,11.60422 -1.430715,0.90513 -3.141765,1.15138 -4.321288,-0.0631 l -0.413467,-0.42571 c -1.179522,-1.21447 -1.350326,-3.38936 0.06308,-4.32129 4.609116,-3.03901 8.893453,-6.50785 11.948029,-11.60422 0.870356,-1.45213 3.141763,-1.15138 4.321288,0.0631 z"
            sodipodi:nodetypes="sssssssss"/>
    <path
            id="path20705"
            style="fill:none;stroke:#000000;stroke-width:0.529167;stroke-linecap:round;stroke-miterlimit:4;stroke-dasharray:none;stroke-opacity:1;stop-color:#000000"
            d="m 18.12428,89.09693 -0.41347,0.42572 c -1.17952,1.21447 -0.89211,2.9235 0.0631,4.32129 3.31953,4.8577 7.33077,8.68313 11.94803,11.60422 1.43072,0.90513 3.14177,1.15138 4.3213,-0.0631 l 0.41346,-0.42571 c 1.17953,-1.21447 1.35033,-3.38936 -0.0631,-4.32129 -4.60912,-3.03901 -8.89346,-6.50785 -11.94803,-11.60422 -0.87036,-1.45213 -3.14177,-1.15138 -4.32129,0.0631 z"
            sodipodi:nodetypes="sssssssss"/>
    <path
            id="path20707"
            style="fill:none;stroke:#000000;stroke-width:0.529167;stroke-linecap:round;stroke-miterlimit:4;stroke-dasharray:none;stroke-opacity:1;stop-color:#000000"
            d="m 14.518215,99.73629 -0.36573,0.46737 c -1.04335,1.33328 -0.57539,3.00193 0.52335,4.28994 3.81843,4.47617 8.2146,7.85223 13.11693,10.26452 1.51905,0.74747 3.2466,0.8099 4.28995,-0.5234 l 0.36573,-0.46735 c 1.04334,-1.33329 0.98133,-3.51401 -0.52336,-4.28996 -4.9068,-2.53037 -9.5365,-5.52275 -13.11692,-10.26447 -1.02019,-1.35108 -3.24661,-0.80993 -4.28995,0.52335 z"
            sodipodi:nodetypes="sssssssss"/>
    <path
            id="path20709"
            style="fill:none;stroke:#000000;stroke-width:0.529167;stroke-linecap:round;stroke-miterlimit:4;stroke-dasharray:none;stroke-opacity:1;stop-color:#000000"
            d="m 78.085953,99.73629 0.365732,0.46737 c 1.043345,1.33328 0.575391,3.00193 -0.523353,4.28994 -3.818425,4.47617 -8.214592,7.85223 -13.116919,10.26452 -1.51905,0.74747 -3.246598,0.8099 -4.289942,-0.5234 l -0.365731,-0.46735 c -1.043344,-1.33329 -0.981338,-3.51401 0.523356,-4.28996 4.9068,-2.53037 9.536491,-5.52275 13.116915,-10.26447 1.020189,-1.35108 3.2466,-0.80993 4.289942,0.52335 z"
            sodipodi:nodetypes="sssssssss"/>
    <rect
            style="font-variation-settings:normal;fill:none;fill-opacity:1;stroke:#000001;stroke-width:0.529167;stroke-linecap:round;stroke-linejoin:miter;stroke-miterlimit:4;stroke-dasharray:none;stroke-dashoffset:0;stroke-opacity:1;stop-color:#000000"
            id="rect20713"
            width="12.351958"
            height="8.8017864"
            x="40.126106"
            y="38.655273"
            rx="3.0559375"
            ry="3.0559375"/>
    <rect
            style="font-variation-settings:normal;fill:none;fill-opacity:1;stroke:#000000;stroke-width:0.529167;stroke-linecap:round;stroke-linejoin:miter;stroke-miterlimit:4;stroke-dasharray:none;stroke-dashoffset:0;stroke-opacity:1;stop-color:#000000"
            id="rect20715"
            width="12.351958"
            height="8.8017864"
            x="67.682808"
            y="16.189077"
            rx="3.0559375"
            ry="3.0559375"
            transform="rotate(21.679714)"/>
    <rect
            style="font-variation-settings:normal;fill:none;fill-opacity:1;stroke:#000000;stroke-width:0.529167;stroke-linecap:round;stroke-linejoin:miter;stroke-miterlimit:4;stroke-dasharray:none;stroke-dashoffset:0;stroke-opacity:1;stop-color:#000000"
            id="rect20717"
            width="12.351958"
            height="8.8017864"
            x="-18.370857"
            y="50.398701"
            rx="3.0559375"
            ry="3.0559375"
            transform="matrix(-0.92926342,0.36941777,0.36941777,0.92926342,0,0)"/>
    <rect
            style="font-variation-settings:normal;fill:none;fill-opacity:1;stroke:#000000;stroke-width:0.529167;stroke-linecap:round;stroke-linejoin:miter;stroke-miterlimit:4;stroke-dasharray:none;stroke-dashoffset:0;stroke-opacity:1;stop-color:#000000"
            id="rect20719"
            width="12.351958"
            height="8.8017864"
            x="17.198545"
            y="47.779072"
            rx="3.0559375"
            ry="3.0559375"
            transform="matrix(-0.73081711,0.68257333,0.68257333,0.73081711,0,0)"/>
    <rect
            style="font-variation-settings:normal;fill:none;fill-opacity:1;stroke:#000000;stroke-width:0.529167;stroke-linecap:round;stroke-linejoin:miter;stroke-miterlimit:4;stroke-dasharray:none;stroke-dashoffset:0;stroke-opacity:1;stop-color:#000000"
            id="rect20721"
            width="12.351958"
            height="8.8017864"
            x="84.875259"
            y="-15.430063"
            rx="3.0559375"
            ry="3.0559375"
            transform="rotate(43.045061)"/>
    <rect
            style="font-variation-settings:normal;fill:none;fill-opacity:1;stroke:#000000;stroke-width:0.529167;stroke-linecap:round;stroke-linejoin:miter;stroke-miterlimit:4;stroke-dasharray:none;stroke-dashoffset:0;stroke-opacity:1;stop-color:#000000"
            id="rect20723"
            width="12.351958"
            height="8.8017864"
            x="52.831406"
            y="15.37621"
            rx="3.0559375"
            ry="3.0559375"
            transform="rotate(11.810287)"/>
    <rect
            style="font-variation-settings:normal;fill:none;fill-opacity:1;stroke:#000000;stroke-width:0.529167;stroke-linecap:round;stroke-linejoin:miter;stroke-miterlimit:4;stroke-dasharray:none;stroke-dashoffset:0;stroke-opacity:1;stop-color:#000000"
            id="rect20725"
            width="12.351958"
            height="8.8017864"
            x="-37.812397"
            y="34.329659"
            rx="3.0559375"
            ry="3.0559375"
            transform="matrix(-0.97883066,0.2046718,0.2046718,0.97883066,0,0)"/>
    <rect
            style="font-variation-settings:normal;fill:none;fill-opacity:1;stroke:#000000;stroke-width:0.529167;stroke-linecap:round;stroke-linejoin:miter;stroke-miterlimit:4;stroke-dasharray:none;stroke-dashoffset:0;stroke-opacity:1;stop-color:#000000"
            id="rect20727"
            width="12.351958"
            height="8.8017864"
            x="-10.122873"
            y="38.938393"
            rx="3.0559375"
            ry="3.0559375"
            transform="matrix(-0.87499838,0.48412585,0.48412585,0.87499838,0,0)"/>
    <rect
            style="font-variation-settings:normal;fill:none;fill-opacity:1;stroke:#000000;stroke-width:0.529167;stroke-linecap:round;stroke-linejoin:miter;stroke-miterlimit:4;stroke-dasharray:none;stroke-dashoffset:0;stroke-opacity:1;stop-color:#000000"
            id="rect20729"
            width="12.351958"
            height="8.8017864"
            x="70.905609"
            y="-5.8937039"
            rx="3.0559375"
            ry="3.0559375"
            transform="rotate(28.955216)"/>
    <circle
            style="font-variation-settings:normal;fill:none;fill-opacity:1;stroke:#000000;stroke-width:0.529167;stroke-linecap:round;stroke-linejoin:miter;stroke-miterlimit:4;stroke-dasharray:none;stroke-dashoffset:0;stroke-opacity:1;stop-color:#000000"
            id="circle20731"
            cx="46.302082"
            cy="75.907303"
            r="15.777275"/>
    <circle
            style="font-variation-settings:normal;fill:none;fill-opacity:1;stroke:#000000;stroke-width:0.529167;stroke-linecap:round;stroke-linejoin:miter;stroke-miterlimit:4;stroke-dasharray:none;stroke-dashoffset:0;stroke-opacity:1;stop-color:#000000"
            id="circle20733"
            cx="46.603321"
            cy="67.60231"
            r="4.9935131"/>
    <circle
            style="font-variation-settings:normal;fill:none;fill-opacity:1;stroke:#000000;stroke-width:0.529167;stroke-linecap:round;stroke-linejoin:miter;stroke-miterlimit:4;stroke-dasharray:none;stroke-dashoffset:0;stroke-opacity:1;stop-color:#000000"
            id="circle20739"
            cx="46.302082"
            cy="75.907303"
            r="22.445749"/>
  </g>
</svg>
