<?xml version="1.0" encoding="UTF-8" standalone="no"?>
<!-- Created with Inkscape (http://www.inkscape.org/) -->

<svg
        xmlns:inkscape="http://www.inkscape.org/namespaces/inkscape"
        xmlns:sodipodi="http://sodipodi.sourceforge.net/DTD/sodipodi-0.dtd"
        width="350"
        height="700"
        viewBox="0 0 92.604164 185.20834"
        version="1.1"
        id="svg3420"
        inkscape:version="1.2.2 (732a01da63, 2022-12-09)"
        sodipodi:docname="PROv2.svg"
        inkscape:export-filename="..\gui\images\PROv2.png"
        inkscape:export-xdpi="96"
        inkscape:export-ydpi="96"
        xmlns="http://www.w3.org/2000/svg">
  <sodipodi:namedview
          id="namedview3422"
          pagecolor="#ffffff"
          bordercolor="#999999"
          borderopacity="1"
          inkscape:showpageshadow="0"
          inkscape:pageopacity="0"
          inkscape:pagecheckerboard="0"
          inkscape:deskcolor="#d1d1d1"
          inkscape:document-units="px"
          showgrid="false"
          inkscape:zoom="1.8761364"
          inkscape:cx="-288.62507"
          inkscape:cy="322.20472"
          inkscape:window-width="3840"
          inkscape:window-height="2137"
          inkscape:window-x="-8"
          inkscape:window-y="-8"
          inkscape:window-maximized="1"
          inkscape:current-layer="layer1"
          showguides="true">
    <sodipodi:guide
            position="53.849027,173.56667"
            orientation="0,1"
            id="guide623"
            inkscape:locked="false"
            inkscape:label=""
            inkscape:color="rgb(0,134,229)"/>
    <sodipodi:guide
            position="113.52564,109.27292"
            orientation="0,1"
            id="guide654"
            inkscape:locked="false"
            inkscape:label=""
            inkscape:color="rgb(0,134,229)"/>
    <sodipodi:guide
            position="46.302084,86.349364"
            orientation="-1,0"
            id="guide463"
            inkscape:locked="false"
            inkscape:label=""
            inkscape:color="rgb(0,134,229)"/>
  </sodipodi:namedview>
  <defs
          id="defs3417"/>
  <g
          inkscape:label="Calque 1"
          inkscape:groupmode="layer"
          id="layer1">
    <path
            style="font-variation-settings:normal;display:inline;fill:none;fill-opacity:1;stroke:#000000;stroke-width:0.529167;stroke-linecap:round;stroke-linejoin:miter;stroke-miterlimit:4;stroke-dasharray:none;stroke-dashoffset:0;stroke-opacity:1;stop-color:#000000"
            d="m 45.325621,13.52296 c 21.00059,0 31.76531,11.20264 39.46449,24.6712 10.59288,18.53063 2.16119,60.84997 0.68023,63.72116 -4.0304,8.34489 -7.38552,27.04278 -9.06739,40.90815 -1.7024,14.03459 -11.03816,28.86191 -31.07733,28.86191 -19.15808,0 -29.267112,-14.77714 -31.037681,-28.77327 C 12.537275,129.07332 11.306989,114.93592 6.526667,101.79089 5.77269,99.95929 -3.008912,59.76661 8.233522,38.13226 15.075417,24.96607 26.572151,13.52296 45.325621,13.52296 Z"
            id="path275434"
            sodipodi:nodetypes="sscssscss"
            inkscape:export-filename="PROv2.png"
            inkscape:export-xdpi="171"
            inkscape:export-ydpi="171"/>
    <path
            id="path277916"
            style="fill:none;stroke:#000000;stroke-width:0.529167;stroke-linecap:round;stroke-miterlimit:4;stroke-dasharray:none;stroke-opacity:1;stop-color:#000000"
            d="m 74.479881,89.09693 0.41347,0.42572 c 1.17952,1.21447 0.89211,2.9235 -0.0631,4.32129 -3.31953,4.85769 -7.33077,8.68313 -11.94803,11.60422 -1.43071,0.90513 -3.14176,1.15138 -4.32129,-0.0631 l -0.41346,-0.42571 c -1.17952,-1.21447 -1.35033,-3.38936 0.0631,-4.32129 4.60911,-3.03901 8.89345,-6.50785 11.94803,-11.60422 0.87035,-1.45213 3.14176,-1.15139 4.32128,0.0631 z"
            sodipodi:nodetypes="sssssssss"/>
    <path
            id="path278000"
            style="fill:none;stroke:#000000;stroke-width:0.529167;stroke-linecap:round;stroke-miterlimit:4;stroke-dasharray:none;stroke-opacity:1;stop-color:#000000"
            d="m 18.124285,89.09693 -0.413467,0.42572 c -1.179522,1.21447 -0.892107,2.9235 0.06308,4.32129 3.319526,4.85769 7.330763,8.68313 11.948023,11.60422 1.43071,0.90513 3.14176,1.15138 4.32128,-0.0631 l 0.41347,-0.42571 c 1.17952,-1.21447 1.35033,-3.38936 -0.0631,-4.32129 -4.60911,-3.03901 -8.89345,-6.50785 -11.94802,-11.60422 -0.870357,-1.45213 -3.141764,-1.15139 -4.321286,0.0631 z"
            sodipodi:nodetypes="sssssssss"/>
    <path
            id="path278002"
            style="fill:none;stroke:#000000;stroke-width:0.529167;stroke-linecap:round;stroke-miterlimit:4;stroke-dasharray:none;stroke-opacity:1;stop-color:#000000"
            d="m 14.518222,99.73629 -0.365732,0.46737 c -1.043344,1.33328 -0.575391,3.00193 0.523353,4.28994 3.818422,4.47617 8.214587,7.85223 13.116907,10.26452 1.51905,0.74747 3.2466,0.8099 4.28994,-0.5234 l 0.36573,-0.46735 c 1.04335,-1.33329 0.98134,-3.51401 -0.52335,-4.28996 -4.9068,-2.53037 -9.53649,-5.52275 -13.116909,-10.26447 -1.020188,-1.35108 -3.246597,-0.80993 -4.289939,0.52335 z"
            sodipodi:nodetypes="sssssssss"/>
    <path
            id="path278004"
            style="fill:none;stroke:#000000;stroke-width:0.529167;stroke-linecap:round;stroke-miterlimit:4;stroke-dasharray:none;stroke-opacity:1;stop-color:#000000"
            d="m 78.08594,99.73629 0.36574,0.46737 c 1.04334,1.33328 0.57539,3.00193 -0.52336,4.28994 -3.81842,4.47617 -8.21459,7.85223 -13.11692,10.26452 -1.51904,0.74747 -3.24659,0.8099 -4.28994,-0.5234 l -0.36573,-0.46735 c -1.04334,-1.33329 -0.98134,-3.51401 0.52336,-4.28996 4.9068,-2.53037 9.53649,-5.52275 13.11691,-10.26447 1.02019,-1.35108 3.2466,-0.80993 4.28994,0.52335 z"
            sodipodi:nodetypes="sssssssss"/>
    <path
            id="rect277678"
            style="fill:none;stroke:#000000;stroke-width:0.529167;stroke-linecap:round;stroke-miterlimit:4;stroke-dasharray:none;stroke-opacity:1;stop-color:#000000"
            d="m 80.162348,64.81436 h 0.59346 c 1.69299,0 2.71872,1.39687 3.05594,3.05593 1.17193,5.76568 1.12144,11.30838 0,16.65573 -0.3475,1.65694 -1.36295,3.05594 -3.05594,3.05594 h -0.59346 c -1.69298,0 -3.37215,-1.39274 -3.05593,-3.05594 1.03117,-5.42367 1.52773,-10.91383 0,-16.65573 -0.43531,-1.63607 1.36295,-3.05593 3.05593,-3.05593 z"
            sodipodi:nodetypes="sssssssss"/>
    <path
            id="path278006"
            style="fill:none;stroke:#000001;stroke-width:0.529167;stroke-linecap:round;stroke-miterlimit:4;stroke-dasharray:none;stroke-opacity:1;stop-color:#000000"
            d="M 12.441815,64.81436 H 11.84836 c -1.692989,0 -2.7187161,1.39687 -3.0559371,3.05593 -1.171933,5.76568 -1.121447,11.30838 0,16.65573 0.347494,1.65694 1.3629481,3.05594 3.0559371,3.05594 h 0.593455 c 1.692988,0 3.37215,-1.39274 3.055935,-3.05594 -1.031174,-5.42367 -1.527733,-10.91383 0,-16.65573 0.435305,-1.63607 -1.362947,-3.05593 -3.055935,-3.05593 z"
            sodipodi:nodetypes="sssssssss"/>
    <rect
            style="font-variation-settings:normal;fill:none;fill-opacity:1;stroke:#000000;stroke-width:0.529167;stroke-linecap:round;stroke-linejoin:miter;stroke-miterlimit:4;stroke-dasharray:none;stroke-dashoffset:0;stroke-opacity:1;stop-color:#000000"
            id="rect278514"
            width="12.351958"
            height="8.8017864"
            x="40.126106"
            y="38.655281"
            rx="3.0559375"
            ry="3.0559375"/>
    <rect
            style="font-variation-settings:normal;fill:none;fill-opacity:1;stroke:#000000;stroke-width:0.529167;stroke-linecap:round;stroke-linejoin:miter;stroke-miterlimit:4;stroke-dasharray:none;stroke-dashoffset:0;stroke-opacity:1;stop-color:#000000"
            id="rect278597"
            width="12.351958"
            height="8.8017864"
            x="67.682854"
            y="16.189091"
            rx="3.0559375"
            ry="3.0559375"
            transform="rotate(21.679714)"/>
    <rect
            style="font-variation-settings:normal;fill:none;fill-opacity:1;stroke:#000003;stroke-width:0.529167;stroke-linecap:round;stroke-linejoin:miter;stroke-miterlimit:4;stroke-dasharray:none;stroke-dashoffset:0;stroke-opacity:1;stop-color:#000000"
            id="rect278599"
            width="12.351958"
            height="8.8017864"
            x="-18.370834"
            y="50.398666"
            rx="3.0559375"
            ry="3.0559375"
            transform="matrix(-0.92926342,0.36941777,0.36941777,0.92926342,0,0)"/>
    <rect
            style="font-variation-settings:normal;fill:none;fill-opacity:1;stroke:#000000;stroke-width:0.529167;stroke-linecap:round;stroke-linejoin:miter;stroke-miterlimit:4;stroke-dasharray:none;stroke-dashoffset:0;stroke-opacity:1;stop-color:#000000"
            id="rect278601"
            width="12.351958"
            height="8.8017864"
            x="17.198574"
            y="47.779106"
            rx="3.0559375"
            ry="3.0559375"
            transform="matrix(-0.73081711,0.68257333,0.68257333,0.73081711,0,0)"/>
    <rect
            style="font-variation-settings:normal;fill:none;fill-opacity:1;stroke:#000000;stroke-width:0.529167;stroke-linecap:round;stroke-linejoin:miter;stroke-miterlimit:4;stroke-dasharray:none;stroke-dashoffset:0;stroke-opacity:1;stop-color:#000000"
            id="rect278603"
            width="12.351958"
            height="8.8017864"
            x="84.875229"
            y="-15.430083"
            rx="3.0559375"
            ry="3.0559375"
            transform="rotate(43.045061)"/>
    <rect
            style="font-variation-settings:normal;fill:none;fill-opacity:1;stroke:#000000;stroke-width:0.529167;stroke-linecap:round;stroke-linejoin:miter;stroke-miterlimit:4;stroke-dasharray:none;stroke-dashoffset:0;stroke-opacity:1;stop-color:#000000"
            id="rect278605"
            width="12.351958"
            height="8.8017864"
            x="52.831417"
            y="15.376199"
            rx="3.0559375"
            ry="3.0559375"
            transform="rotate(11.810287)"/>
    <rect
            style="font-variation-settings:normal;fill:none;fill-opacity:1;stroke:#000000;stroke-width:0.529167;stroke-linecap:round;stroke-linejoin:miter;stroke-miterlimit:4;stroke-dasharray:none;stroke-dashoffset:0;stroke-opacity:1;stop-color:#000000"
            id="rect278607"
            width="12.351958"
            height="8.8017864"
            x="-37.812378"
            y="34.329689"
            rx="3.0559375"
            ry="3.0559375"
            transform="matrix(-0.97883066,0.2046718,0.2046718,0.97883066,0,0)"/>
    <rect
            style="font-variation-settings:normal;fill:none;fill-opacity:1;stroke:#000000;stroke-width:0.529167;stroke-linecap:round;stroke-linejoin:miter;stroke-miterlimit:4;stroke-dasharray:none;stroke-dashoffset:0;stroke-opacity:1;stop-color:#000000"
            id="rect278609"
            width="12.351958"
            height="8.8017864"
            x="-10.122907"
            y="38.938381"
            rx="3.0559375"
            ry="3.0559375"
            transform="matrix(-0.87499838,0.48412585,0.48412585,0.87499838,0,0)"/>
    <rect
            style="font-variation-settings:normal;fill:none;fill-opacity:1;stroke:#000000;stroke-width:0.529167;stroke-linecap:round;stroke-linejoin:miter;stroke-miterlimit:4;stroke-dasharray:none;stroke-dashoffset:0;stroke-opacity:1;stop-color:#000000"
            id="rect278611"
            width="12.351958"
            height="8.8017864"
            x="70.905594"
            y="-5.893681"
            rx="3.0559375"
            ry="3.0559375"
            transform="rotate(28.955216)"/>
    <circle
            style="font-variation-settings:normal;fill:none;fill-opacity:1;stroke:#000000;stroke-width:0.529167;stroke-linecap:round;stroke-linejoin:miter;stroke-miterlimit:4;stroke-dasharray:none;stroke-dashoffset:0;stroke-opacity:1;stop-color:#000000"
            id="path277566"
            cx="46.302082"
            cy="75.90731"
            r="15.777275"/>
    <circle
            style="font-variation-settings:normal;fill:none;fill-opacity:1;stroke:#000000;stroke-width:0.529167;stroke-linecap:round;stroke-linejoin:miter;stroke-miterlimit:4;stroke-dasharray:none;stroke-dashoffset:0;stroke-opacity:1;stop-color:#000000"
            id="path277568"
            cx="46.603306"
            cy="67.602318"
            r="4.9935131"/>
    <circle
            style="font-variation-settings:normal;fill:none;fill-opacity:1;stroke:#000000;stroke-width:0.529167;stroke-linecap:round;stroke-linejoin:miter;stroke-miterlimit:4;stroke-dasharray:none;stroke-dashoffset:0;stroke-opacity:1;stop-color:#000000"
            id="circle277650"
            cx="53.575733"
            cy="79.923424"
            r="4.9935131"/>
    <circle
            style="font-variation-settings:normal;fill:none;fill-opacity:1;stroke:#000000;stroke-width:0.529167;stroke-linecap:round;stroke-linejoin:miter;stroke-miterlimit:4;stroke-dasharray:none;stroke-dashoffset:0;stroke-opacity:1;stop-color:#000000"
            id="circle277652"
            cx="38.871311"
            cy="79.923424"
            r="4.9935131"/>
    <circle
            style="font-variation-settings:normal;fill:none;fill-opacity:1;stroke:#000000;stroke-width:0.529167;stroke-linecap:round;stroke-linejoin:miter;stroke-miterlimit:4;stroke-dasharray:none;stroke-dashoffset:0;stroke-opacity:1;stop-color:#000000"
            id="circle277654"
            cx="46.302082"
            cy="75.90731"
            r="22.445749"/>
    <text
            xml:space="preserve"
            style="font-style:normal;font-weight:normal;font-size:3.8597px;line-height:1.25;font-family:sans-serif;letter-spacing:-0.232502px;fill:#000000;fill-opacity:1;stroke:none;stroke-width:0.0964923"
            x="35.198933"
            y="115.87392"
            id="text279649"><tspan
         sodipodi:role="line"
         id="tspan279647"
         style="fill:#000000;fill-opacity:1;stroke-width:0.0964923"
         x="35.198933"
         y="115.87392">ShuttlePROv2</tspan></text>
  </g>
</svg>
